<?xml version="1.0" encoding="UTF-8" standalone="no"?>
<!-- Created with Inkscape (http://www.inkscape.org/) -->

<svg
   xmlns:dc="http://purl.org/dc/elements/1.1/"
   xmlns:cc="http://creativecommons.org/ns#"
   xmlns:rdf="http://www.w3.org/1999/02/22-rdf-syntax-ns#"
   xmlns:svg="http://www.w3.org/2000/svg"
   xmlns="http://www.w3.org/2000/svg"
   xmlns:sodipodi="http://sodipodi.sourceforge.net/DTD/sodipodi-0.dtd"
   xmlns:inkscape="http://www.inkscape.org/namespaces/inkscape"
   width="168.38773mm"
   height="109.68778mm"
   viewBox="0 0 168.38773 109.68778"
   version="1.1"
   id="svg8"
   inkscape:version="0.92.2 (5c3e80d, 2017-08-06)"
   sodipodi:docname="logo.svg"
   inkscape:export-filename="/home/athas/Pictures/futhark.png"
   inkscape:export-xdpi="96"
   inkscape:export-ydpi="96">
  <defs
     id="defs2" />
  <sodipodi:namedview
     id="base"
     pagecolor="#ffffff"
     bordercolor="#666666"
     borderopacity="1.0"
     inkscape:pageopacity="0.0"
     inkscape:pageshadow="2"
     inkscape:zoom="1.4"
     inkscape:cx="-29.424497"
     inkscape:cy="294.65885"
     inkscape:document-units="mm"
     inkscape:current-layer="layer1"
     showgrid="false"
     inkscape:window-width="1920"
     inkscape:window-height="1016"
     inkscape:window-x="0"
     inkscape:window-y="27"
     inkscape:window-maximized="1"
     fit-margin-top="0"
     fit-margin-left="0"
     fit-margin-right="0"
     fit-margin-bottom="0" />
  <metadata
     id="metadata5">
    <rdf:RDF>
      <cc:Work
         rdf:about="">
        <dc:format>image/svg+xml</dc:format>
        <dc:type
           rdf:resource="http://purl.org/dc/dcmitype/StillImage" />
        <dc:title></dc:title>
      </cc:Work>
    </rdf:RDF>
  </metadata>
  <g
     inkscape:label="Layer 1"
     inkscape:groupmode="layer"
     id="layer1"
     transform="translate(-18.736665,-45.858002)">
    <path
       style="fill:#000000;stroke-width:1"
       d="M 55.574356,113.31833 C 73.259169,89.293845 94.897171,83.094328 107.47147,86.992444 c 30.55329,9.881806 46.18066,17.337586 46.54319,7.526892 6.99118,0.258593 14.0565,29.165714 29.00086,33.458294 9.35408,3.39473 1.33478,5.44875 -10.02517,15.15039 -25.4335,20.73269 -150.818892,18.49702 -117.415994,-29.80969 z M 18.736665,109.74287 C 18.77709,102.51264 34.356256,102.03744 46.2531,100.9003 53.477803,89.109317 26.776689,74.554299 26.776689,74.554299 c 1.468945,-6.319892 22.978727,-2.175273 40.647748,6.773683 12.797751,-7.052309 -5.42916,-31.545451 -5.42916,-31.545451 5.054064,-6.609656 29.351226,15.232873 33.626328,22.916178 10.412335,0.415288 10.553825,-17.875835 5.775115,-25.920141 5.14529,-6.167364 22.85533,20.275791 26.73852,31.096953 7.57615,0.201456 7.5444,-4.481325 4.70365,-17.536757 4.15734,-4.880844 15.26876,21.421556 15.51322,27.833799 0.0758,8.152015 -15.57399,-1.080095 -21.47649,-2.299412 -9.96067,-4.16944 -20.73593,-8.012273 -31.67563,-5.767056 -16.436625,2.095387 -28.753136,9.428361 -41.290424,23.861125 -18.103367,25.4575 5.050961,12.09118 -35.172901,5.77565 z"
       id="path4534"
       inkscape:connector-curvature="0"
       sodipodi:nodetypes="cccccccccccccccccccc" />
  </g>
</svg>
