<?xml version="1.0" encoding="UTF-8" standalone="no"?>
<!DOCTYPE svg PUBLIC "-//W3C//DTD SVG 1.1//EN"
 "http://www.w3.org/Graphics/SVG/1.1/DTD/svg11.dtd">
<!-- Generated by graphviz version 2.43.0 (0)
 -->
<!-- Title: %3 Pages: 1 -->
<svg width="1088pt" height="116pt"
 viewBox="0.00 0.00 1088.39 116.00" xmlns="http://www.w3.org/2000/svg" xmlns:xlink="http://www.w3.org/1999/xlink">
<g id="graph0" class="graph" transform="scale(1 1) rotate(0) translate(4 112)">
<title>%3</title>
<polygon fill="white" stroke="transparent" points="-4,4 -4,-112 1084.39,-112 1084.39,4 -4,4"/>
<!-- g_5998 -->
<g id="node1" class="node">
<title>g_5998</title>
<ellipse fill="none" stroke="black" cx="93.2" cy="-90" rx="44.39" ry="18"/>
<text text-anchor="middle" x="93.2" y="-86.3" font-family="Times,serif" font-size="14.00">g_5998</text>
</g>
<!-- +_494 -->
<g id="node2" class="node">
<title>+_494</title>
<ellipse fill="none" stroke="black" cx="146.2" cy="-18" rx="40.09" ry="18"/>
<text text-anchor="middle" x="146.2" y="-14.3" font-family="Times,serif" font-size="14.00">+_494</text>
</g>
<!-- g_5998&#45;&gt;+_494 -->
<g id="edge1" class="edge">
<title>g_5998&#45;&gt;+_494</title>
<path fill="none" stroke="black" d="M105.76,-72.41C112.29,-63.78 120.41,-53.06 127.65,-43.5"/>
<polygon fill="black" stroke="black" points="130.48,-45.56 133.73,-35.47 124.9,-41.33 130.48,-45.56"/>
</g>
<!-- x_5992 -->
<g id="node3" class="node">
<title>x_5992</title>
<ellipse fill="none" stroke="black" cx="44.2" cy="-18" rx="44.39" ry="18"/>
<text text-anchor="middle" x="44.2" y="-14.3" font-family="Times,serif" font-size="14.00">x_5992</text>
</g>
<!-- g_5998&#45;&gt;x_5992 -->
<g id="edge2" class="edge">
<title>g_5998&#45;&gt;x_5992</title>
<path fill="none" stroke="black" d="M81.58,-72.41C75.6,-63.87 68.19,-53.28 61.55,-43.79"/>
<polygon fill="black" stroke="black" points="64.33,-41.66 55.73,-35.47 58.59,-45.67 64.33,-41.66"/>
</g>
<!-- h_6002 -->
<g id="node4" class="node">
<title>h_6002</title>
<ellipse fill="none" stroke="black" cx="300.2" cy="-90" rx="44.39" ry="18"/>
<text text-anchor="middle" x="300.2" y="-86.3" font-family="Times,serif" font-size="14.00">h_6002</text>
</g>
<!-- h_6002&#45;&gt;+_494 -->
<g id="edge3" class="edge">
<title>h_6002&#45;&gt;+_494</title>
<path fill="none" stroke="black" d="M271.59,-76C246.46,-64.57 209.76,-47.89 182.55,-35.52"/>
<polygon fill="black" stroke="black" points="183.91,-32.3 173.36,-31.35 181.01,-38.67 183.91,-32.3"/>
</g>
<!-- x_5965 -->
<g id="node5" class="node">
<title>x_5965</title>
<ellipse fill="none" stroke="black" cx="248.2" cy="-18" rx="44.39" ry="18"/>
<text text-anchor="middle" x="248.2" y="-14.3" font-family="Times,serif" font-size="14.00">x_5965</text>
</g>
<!-- h_6002&#45;&gt;x_5965 -->
<g id="edge4" class="edge">
<title>h_6002&#45;&gt;x_5965</title>
<path fill="none" stroke="black" d="M287.87,-72.41C281.53,-63.87 273.66,-53.28 266.61,-43.79"/>
<polygon fill="black" stroke="black" points="269.2,-41.41 260.43,-35.47 263.58,-45.58 269.2,-41.41"/>
</g>
<!-- f_5970 -->
<g id="node6" class="node">
<title>f_5970</title>
<ellipse fill="none" stroke="black" cx="352.2" cy="-18" rx="42.49" ry="18"/>
<text text-anchor="middle" x="352.2" y="-14.3" font-family="Times,serif" font-size="14.00">f_5970</text>
</g>
<!-- h_6002&#45;&gt;f_5970 -->
<g id="edge5" class="edge">
<title>h_6002&#45;&gt;f_5970</title>
<path fill="none" stroke="black" d="M312.52,-72.41C318.87,-63.87 326.73,-53.28 333.78,-43.79"/>
<polygon fill="black" stroke="black" points="336.81,-45.58 339.96,-35.47 331.19,-41.41 336.81,-45.58"/>
</g>
<!-- x_5999 -->
<g id="node7" class="node">
<title>x_5999</title>
<ellipse fill="none" stroke="black" cx="456.2" cy="-18" rx="44.39" ry="18"/>
<text text-anchor="middle" x="456.2" y="-14.3" font-family="Times,serif" font-size="14.00">x_5999</text>
</g>
<!-- h_6002&#45;&gt;x_5999 -->
<g id="edge6" class="edge">
<title>h_6002&#45;&gt;x_5999</title>
<path fill="none" stroke="black" d="M328.81,-76.16C353.91,-64.9 390.6,-48.43 418.17,-36.07"/>
<polygon fill="black" stroke="black" points="419.81,-39.16 427.5,-31.88 416.94,-32.78 419.81,-39.16"/>
</g>
<!-- user_6003 -->
<g id="node8" class="node">
<title>user_6003</title>
<ellipse fill="none" stroke="black" cx="825.2" cy="-90" rx="59.29" ry="18"/>
<text text-anchor="middle" x="825.2" y="-86.3" font-family="Times,serif" font-size="14.00">user_6003</text>
</g>
<!-- used_x_5976 -->
<g id="node9" class="node">
<title>used_x_5976</title>
<ellipse fill="none" stroke="black" cx="588.2" cy="-18" rx="70.39" ry="18"/>
<text text-anchor="middle" x="588.2" y="-14.3" font-family="Times,serif" font-size="14.00">used_x_5976</text>
</g>
<!-- user_6003&#45;&gt;used_x_5976 -->
<g id="edge7" class="edge">
<title>user_6003&#45;&gt;used_x_5976</title>
<path fill="none" stroke="black" d="M784.18,-76.89C744.85,-65.27 685.24,-47.66 642.09,-34.92"/>
<polygon fill="black" stroke="black" points="642.9,-31.51 632.32,-32.03 640.92,-38.22 642.9,-31.51"/>
</g>
<!-- used_x_5977 -->
<g id="node10" class="node">
<title>used_x_5977</title>
<ellipse fill="none" stroke="black" cx="746.2" cy="-18" rx="70.39" ry="18"/>
<text text-anchor="middle" x="746.2" y="-14.3" font-family="Times,serif" font-size="14.00">used_x_5977</text>
</g>
<!-- user_6003&#45;&gt;used_x_5977 -->
<g id="edge8" class="edge">
<title>user_6003&#45;&gt;used_x_5977</title>
<path fill="none" stroke="black" d="M806.87,-72.76C796.58,-63.64 783.56,-52.1 772.22,-42.06"/>
<polygon fill="black" stroke="black" points="774.5,-39.4 764.69,-35.39 769.86,-44.64 774.5,-39.4"/>
</g>
<!-- used_x_5980 -->
<g id="node11" class="node">
<title>used_x_5980</title>
<ellipse fill="none" stroke="black" cx="904.2" cy="-18" rx="70.39" ry="18"/>
<text text-anchor="middle" x="904.2" y="-14.3" font-family="Times,serif" font-size="14.00">used_x_5980</text>
</g>
<!-- user_6003&#45;&gt;used_x_5980 -->
<g id="edge9" class="edge">
<title>user_6003&#45;&gt;used_x_5980</title>
<path fill="none" stroke="black" d="M843.52,-72.76C853.81,-63.64 866.84,-52.1 878.17,-42.06"/>
<polygon fill="black" stroke="black" points="880.54,-44.64 885.7,-35.39 875.89,-39.4 880.54,-44.64"/>
</g>
<!-- k_5982 -->
<g id="node12" class="node">
<title>k_5982</title>
<ellipse fill="none" stroke="black" cx="1036.2" cy="-18" rx="44.39" ry="18"/>
<text text-anchor="middle" x="1036.2" y="-14.3" font-family="Times,serif" font-size="14.00">k_5982</text>
</g>
<!-- user_6003&#45;&gt;k_5982 -->
<g id="edge10" class="edge">
<title>user_6003&#45;&gt;k_5982</title>
<path fill="none" stroke="black" d="M863.9,-76.16C900.48,-64.02 955.28,-45.85 993.21,-33.26"/>
<polygon fill="black" stroke="black" points="994.56,-36.5 1002.95,-30.03 992.35,-29.86 994.56,-36.5"/>
</g>
</g>
</svg>
